<?xml version="1.0" encoding="UTF-8" standalone="no"?>
<svg xmlns="http://www.w3.org/2000/svg" xmlns:xlink="http://www.w3.org/1999/xlink" height="666px" preserveAspectRatio="none" style="width:524px;height:666px;" version="1.1" viewBox="0 0 524 666" width="524px" zoomAndPan="magnify"><defs><filter height="300%" id="f1tzjabjvjts8h" width="300%" x="-1" y="-1"><feGaussianBlur result="blurOut" stdDeviation="2.0"/><feColorMatrix in="blurOut" result="blurOut2" type="matrix" values="0 0 0 0 0 0 0 0 0 0 0 0 0 0 0 0 0 0 .4 0"/><feOffset dx="4.0" dy="4.0" in="blurOut2" result="blurOut3"/><feBlend in="SourceGraphic" in2="blurOut3" mode="normal"/></filter></defs><g><text fill="#000000" font-family="sans-serif" font-size="18" lengthAdjust="spacing" textLength="61" x="225" y="16.708">legend</text><!--MD5=[262aabfe314dcb38308ea550cce12173] cluster Some Group--><polygon fill="#FFFFFF" filter="url(#f1tzjabjvjts8h)" points="16,26.9531,120,26.9531,127,49.25,488,49.25,488,123.9531,16,123.9531,16,26.9531" style="stroke:#000000;stroke-width:1.5;"/><line style="stroke:#000000;stroke-width:1.5;" x1="16" x2="127" y1="49.25" y2="49.25"/><text fill="#000000" font-family="sans-serif" font-size="14" font-weight="bold" lengthAdjust="spacing" textLength="98" x="20" y="41.9482">Some Group</text><!--MD5=[a809f7b457cbc4d947186a4bb863b06b] cluster Other Groups--><polygon fill="#FFFFFF" filter="url(#f1tzjabjvjts8h)" points="50,157.9531,60,147.9531,319,147.9531,319,239.9531,309,249.9531,50,249.9531,50,157.9531" style="stroke:#000000;stroke-width:1.5;"/><line style="stroke:#000000;stroke-width:1.5;" x1="309" x2="319" y1="157.9531" y2="147.9531"/><line style="stroke:#000000;stroke-width:1.5;" x1="50" x2="309" y1="157.9531" y2="157.9531"/><line style="stroke:#000000;stroke-width:1.5;" x1="309" x2="309" y1="157.9531" y2="249.9531"/><text fill="#000000" font-family="sans-serif" font-size="14" font-weight="bold" lengthAdjust="spacing" textLength="109" x="126" y="173.9482">Other Groups</text><path d="M351.8647,180.5207 C355.0864,174.6115 359.2459,173.4069 363.6322,179.3661 C366.4061,173.8001 371.5107,174.1933 374.7408,178.8715 C378.0659,173.7082 382.6274,173.2842 386.0174,178.803 C388.3786,173.1081 392.5751,172.191 396.8058,176.8562 C399.3718,171.7686 402.8914,171.3509 406.6964,175.5345 C410.2874,170.1582 414.6602,169.0822 418.9905,174.7083 C423.1571,170.8473 427.0798,171.3518 428.6141,177.2927 C431.7567,171.6411 436.8449,171.8225 440.5099,176.7025 C444.5408,171.2512 449.1211,172.2997 452.0496,177.8581 C455.4354,173.4784 459.4669,173.6402 462.0405,178.7161 C466.29,173.583 470.8856,174.5299 474.037,179.9629 C477.2544,174.245 481.8099,175.6078 484.9403,180.0561 C493.9524,182.7364 494.5176,190.2136 487.7706,195.7382 C497.5067,197.9954 500.5352,205.2859 493.2749,212.9716 C498.1892,219.0182 497.9073,225.1173 489.2264,227.3308 C496.3816,234.0629 492.561,241.3746 484.2688,243.3159 C481.2399,248.9668 476.7134,248.6864 472.8064,244.3208 C470.5198,250.4454 466.2599,251.1367 462.1671,246.0322 C458.5497,251.3326 453.0619,251.8609 450.1846,245.2855 C448.6172,249.8558 445.0552,250.9282 441.1842,248.0804 C438.1733,254.0727 433.5781,254.4828 429.364,249.3599 C426.333,255.0552 421.4348,255.3756 417.9245,249.8484 C414.8925,254.7692 410.2741,253.375 408.1668,248.8892 C403.3211,254.7024 397.8366,253.7554 395.2596,246.6266 C391.8945,251.983 387.7328,251.4409 384.2835,246.7183 C380.7433,251.237 377.0948,250.5785 374.4319,245.7898 C370.2976,250.4464 366.9484,250.2413 363.6889,244.8542 C359.4247,248.7886 355.5981,248.9665 352.8853,243.1376 C345.3496,239.5758 343.2327,232.1881 350.8334,226.733 C344.5832,222.7265 343.0239,216.3284 350.5967,212.0984 C344.1257,206.9513 345.4113,200.87 352.0578,196.9917 C344.4108,192.0552 345.2795,185.6241 351.8647,180.5207 " fill="#FFFFFF" filter="url(#f1tzjabjvjts8h)" style="stroke:#000000;stroke-width:1.5;"/><!--MD5=[a8e31809c94bd3920922c17a126bb0b3] cluster MySql--><path d="M317,283.9531 C317,273.9531 417,273.9531 417,273.9531 C417,273.9531 517,273.9531 517,283.9531 L517,563.9531 C517,573.9531 417,573.9531 417,573.9531 C417,573.9531 317,573.9531 317,563.9531 L317,283.9531 " fill="#FFFFFF" filter="url(#f1tzjabjvjts8h)" style="stroke:#000000;stroke-width:1.5;"/><path d="M317,283.9531 C317,293.9531 417,293.9531 417,293.9531 C417,293.9531 517,293.9531 517,283.9531 " fill="none" style="stroke:#000000;stroke-width:1.5;"/><text fill="#000000" font-family="sans-serif" font-size="14" font-weight="bold" lengthAdjust="spacing" textLength="48" x="393" y="308.9482">MySql</text><!--MD5=[57a7dd60b0970f41fd8892a58576fbc8] cluster This is my folder--><polygon fill="#FFFFFF" filter="url(#f1tzjabjvjts8h)" points="341,331.9531,483,331.9531,490,354.25,493,354.25,493,428.9531,341,428.9531,341,331.9531" style="stroke:#000000;stroke-width:1.5;"/><line style="stroke:#000000;stroke-width:1.5;" x1="341" x2="490" y1="354.25" y2="354.25"/><text fill="#000000" font-family="sans-serif" font-size="14" font-weight="bold" lengthAdjust="spacing" textLength="136" x="345" y="346.9482">This is my folder</text><!--MD5=[b098bf3b49ab5940c6091a421f0675e2] cluster Foo--><rect fill="#FFFFFF" filter="url(#f1tzjabjvjts8h)" height="97" style="stroke:#000000;stroke-width:1.5;" width="130" x="352" y="452.9531"/><path d="M391,452.9531 L391,462.25 L381,472.25 L352,472.25 " fill="none" style="stroke:#000000;stroke-width:1.5;"/><text fill="#000000" font-family="sans-serif" font-size="14" font-weight="bold" lengthAdjust="spacing" textLength="29" x="355" y="466.9482">Foo</text><!--MD5=[96f7e1299d4a43069e6ed32352fcac20] entity HTTP--><ellipse cx="238" cy="84.9531" fill="#FEFECE" filter="url(#f1tzjabjvjts8h)" rx="8" ry="8" style="stroke:#A80036;stroke-width:1.5;"/><text fill="#000000" font-family="sans-serif" font-size="14" lengthAdjust="spacing" textLength="37" x="219.5" y="114.9482">HTTP</text><!--MD5=[cbd7cda55f2530e2efe43ec72c097853] entity First Component--><rect fill="#FEFECE" filter="url(#f1tzjabjvjts8h)" height="46.2969" style="stroke:#A80036;stroke-width:1.5;" width="162" x="32" y="61.9531"/><rect fill="#FEFECE" height="10" style="stroke:#A80036;stroke-width:1.5;" width="15" x="174" y="66.9531"/><rect fill="#FEFECE" height="2" style="stroke:#A80036;stroke-width:1.5;" width="4" x="172" y="68.9531"/><rect fill="#FEFECE" height="2" style="stroke:#A80036;stroke-width:1.5;" width="4" x="172" y="72.9531"/><text fill="#000000" font-family="sans-serif" font-size="14" lengthAdjust="spacing" textLength="122" x="47" y="94.9482">First Component</text><!--MD5=[b9d11f23832c1491231c5b33e55ab8c6] entity Another Component--><rect fill="#FEFECE" filter="url(#f1tzjabjvjts8h)" height="46.2969" style="stroke:#A80036;stroke-width:1.5;" width="189" x="282.5" y="61.9531"/><rect fill="#FEFECE" height="10" style="stroke:#A80036;stroke-width:1.5;" width="15" x="451.5" y="66.9531"/><rect fill="#FEFECE" height="2" style="stroke:#A80036;stroke-width:1.5;" width="4" x="449.5" y="68.9531"/><rect fill="#FEFECE" height="2" style="stroke:#A80036;stroke-width:1.5;" width="4" x="449.5" y="72.9531"/><text fill="#000000" font-family="sans-serif" font-size="14" lengthAdjust="spacing" textLength="149" x="297.5" y="94.9482">Another Component</text><!--MD5=[76af18d92d7d7c0f7ebd8f4f605ac5aa] entity FTP--><ellipse cx="75" cy="210.9531" fill="#FEFECE" filter="url(#f1tzjabjvjts8h)" rx="8" ry="8" style="stroke:#A80036;stroke-width:1.5;"/><text fill="#000000" font-family="sans-serif" font-size="14" lengthAdjust="spacing" textLength="26" x="62" y="240.9482">FTP</text><!--MD5=[0e2cc1aee2c7f52697e111b4fb84546c] entity Second Component--><rect fill="#FEFECE" filter="url(#f1tzjabjvjts8h)" height="46.2969" style="stroke:#A80036;stroke-width:1.5;" width="183" x="119.5" y="187.9531"/><rect fill="#FEFECE" height="10" style="stroke:#A80036;stroke-width:1.5;" width="15" x="282.5" y="192.9531"/><rect fill="#FEFECE" height="2" style="stroke:#A80036;stroke-width:1.5;" width="4" x="280.5" y="194.9531"/><rect fill="#FEFECE" height="2" style="stroke:#A80036;stroke-width:1.5;" width="4" x="280.5" y="198.9531"/><text fill="#000000" font-family="sans-serif" font-size="14" lengthAdjust="spacing" textLength="143" x="134.5" y="220.9482">Second Component</text><!--MD5=[243c1e580c31013c48b02624e18b25a7] entity Example 1--><rect fill="#FEFECE" filter="url(#f1tzjabjvjts8h)" height="46.2969" style="stroke:#A80036;stroke-width:1.5;" width="115" x="359.5" y="187.9531"/><rect fill="#FEFECE" height="10" style="stroke:#A80036;stroke-width:1.5;" width="15" x="454.5" y="192.9531"/><rect fill="#FEFECE" height="2" style="stroke:#A80036;stroke-width:1.5;" width="4" x="452.5" y="194.9531"/><rect fill="#FEFECE" height="2" style="stroke:#A80036;stroke-width:1.5;" width="4" x="452.5" y="198.9531"/><text fill="#000000" font-family="sans-serif" font-size="14" lengthAdjust="spacing" textLength="75" x="374.5" y="220.9482">Example 1</text><!--MD5=[3e0e08c92570480402984701ab5a6d2d] entity Folder 3--><rect fill="#FEFECE" filter="url(#f1tzjabjvjts8h)" height="46.2969" style="stroke:#A80036;stroke-width:1.5;" width="98" x="368" y="366.9531"/><rect fill="#FEFECE" height="10" style="stroke:#A80036;stroke-width:1.5;" width="15" x="446" y="371.9531"/><rect fill="#FEFECE" height="2" style="stroke:#A80036;stroke-width:1.5;" width="4" x="444" y="373.9531"/><rect fill="#FEFECE" height="2" style="stroke:#A80036;stroke-width:1.5;" width="4" x="444" y="377.9531"/><text fill="#000000" font-family="sans-serif" font-size="14" lengthAdjust="spacing" textLength="58" x="383" y="399.9482">Folder 3</text><!--MD5=[63877ed85df621d134a6c80fb52dad56] entity Frame 4--><rect fill="#FEFECE" filter="url(#f1tzjabjvjts8h)" height="46.2969" style="stroke:#A80036;stroke-width:1.5;" width="97" x="368.5" y="487.9531"/><rect fill="#FEFECE" height="10" style="stroke:#A80036;stroke-width:1.5;" width="15" x="445.5" y="492.9531"/><rect fill="#FEFECE" height="2" style="stroke:#A80036;stroke-width:1.5;" width="4" x="443.5" y="494.9531"/><rect fill="#FEFECE" height="2" style="stroke:#A80036;stroke-width:1.5;" width="4" x="443.5" y="498.9531"/><text fill="#000000" font-family="sans-serif" font-size="14" lengthAdjust="spacing" textLength="57" x="383.5" y="520.9482">Frame 4</text><!--MD5=[46d996859f59e5baf77956ce93023cee] link HTTP to First Component--><path d="M228.73,84.9531 C217.172,84.9531 205.613,84.9531 194.055,84.9531 " fill="none" id="HTTP-First Component" style="stroke:#A80036;stroke-width:1.0;"/><!--MD5=[1966a42bb49d59057147dbda06282f4b] link FTP to Second Component--><path d="M84.0312,210.9531 C95.7692,210.9531 107.507,210.9531 119.245,210.9531 " fill="none" id="FTP-Second Component" style="stroke:#A80036;stroke-width:1.0;"/><!--MD5=[d3aefbd8005e27b21e7ce98ddd948193] link First Component to FTP--><path d="M106.206,108.1221 C98.2949,133.9381 85.487,175.7321 79.0158,196.8491 " fill="none" id="First Component-to-FTP" style="stroke:#A80036;stroke-width:1.0;"/><polygon fill="#A80036" points="77.514,201.7501,83.9765,194.318,78.9797,196.9698,76.3279,191.973,77.514,201.7501" style="stroke:#A80036;stroke-width:1.0;"/><!--MD5=[efc1ffe8b578a0fb156c7bce303319bb] link Another Component to Example 1--><path d="M384.151,108.1221 C390.878,128.9761 400.969,160.2551 408.189,182.6401 " fill="none" id="Another Component-to-Example 1" style="stroke:#0000FF;stroke-width:1.0;"/><polygon fill="#0000FF" points="409.776,187.5581,410.8185,177.7646,408.2404,182.7998,403.2052,180.2216,409.776,187.5581" style="stroke:#0000FF;stroke-width:1.0;"/><!--MD5=[7ec8393a78a133520e8846dd05a7857a] link Example 1 to Folder 3--><path d="M417,234.0121 C417,266.2961 417,326.3761 417,361.4831 " fill="none" id="Example 1-to-Folder 3" style="stroke:#0000FF;stroke-width:1.0;"/><polygon fill="#0000FF" points="417,366.8941,421,357.8941,417,361.8941,413,357.8941,417,366.8941" style="stroke:#0000FF;stroke-width:1.0;"/><!--MD5=[b96c7096199393c1414a8b4e9ed2c30f] link Folder 3 to Frame 4--><path d="M417,413.0571 C417,432.6381 417,461.3041 417,482.3791 " fill="none" id="Folder 3-to-Frame 4" style="stroke:#0000FF;stroke-width:1.0;"/><polygon fill="#0000FF" points="417,487.5631,421,478.5631,417,482.5631,413,478.5631,417,487.5631" style="stroke:#0000FF;stroke-width:1.0;"/><rect fill="#DDDDDD" height="62.8906" rx="5" ry="5" style="stroke:#000000;stroke-width:1.0;" width="115" x="197.5" y="587.9531"/><text fill="#000000" font-family="sans-serif" font-size="14" lengthAdjust="spacing" textLength="38" x="207.5" y="607.9482">Color</text><text fill="#000000" font-family="sans-serif" font-size="14" lengthAdjust="spacing" textLength="32" x="253.5" y="607.9482">Flow</text><rect fill="#FF0000" height="16.2969" style="stroke:none;stroke-width:1.0;" width="46" x="203.5" y="611.25"/><text fill="#000000" font-family="sans-serif" font-size="14" lengthAdjust="spacing" textLength="0" x="207.5" y="624.2451"/><text fill="#000000" font-family="sans-serif" font-size="14" lengthAdjust="spacing" textLength="45" x="257.5" y="624.2451">Flow 1</text><rect fill="#0000FF" height="16.2969" style="stroke:none;stroke-width:1.0;" width="46" x="203.5" y="627.5469"/><text fill="#000000" font-family="sans-serif" font-size="14" lengthAdjust="spacing" textLength="0" x="207.5" y="640.542"/><text fill="#000000" font-family="sans-serif" font-size="14" lengthAdjust="spacing" textLength="44" x="257.5" y="640.542">Flow 2</text><line style="stroke:#000000;stroke-width:1.0;" x1="203.5" x2="306.5" y1="594.9531" y2="594.9531"/><line style="stroke:#000000;stroke-width:1.0;" x1="203.5" x2="306.5" y1="611.25" y2="611.25"/><line style="stroke:#000000;stroke-width:1.0;" x1="203.5" x2="306.5" y1="627.5469" y2="627.5469"/><line style="stroke:#000000;stroke-width:1.0;" x1="203.5" x2="306.5" y1="643.8438" y2="643.8438"/><line style="stroke:#000000;stroke-width:1.0;" x1="203.5" x2="203.5" y1="594.9531" y2="643.8438"/><line style="stroke:#000000;stroke-width:1.0;" x1="249.5" x2="249.5" y1="594.9531" y2="643.8438"/><line style="stroke:#000000;stroke-width:1.0;" x1="306.5" x2="306.5" y1="594.9531" y2="643.8438"/><!--MD5=[5899998b1dc1f65576529f6ea31d5439] @startuml title legend package "Some Group" { HTTP - [First Component] [Another Component] } node "Other Groups" { FTP - [Second Component] [First Component] - -> FTP } cloud { [Example 1] } database "MySql" { folder "This is my folder" { [Folder 3] } frame "Foo" { [Frame 4] } } [Another Component] - -> [Example 1] #Blue [Example 1] - -> [Folder 3] #Blue [Folder 3] - -> [Frame 4] #Blue legend | Color | Flow | |<#Red>| Flow 1 | |<#Blue>| Flow 2 | endlegend @enduml PlantUML version 1.2021.2beta9(Unknown compile time) (GPL source distribution) Java Runtime: Java(TM) SE Runtime Environment JVM: Java HotSpot(TM) 64-Bit Server VM Default Encoding: UTF-8 Language: en Country: US --></g></svg>