<?xml version="1.0" encoding="UTF-8" standalone="no"?><svg xmlns="http://www.w3.org/2000/svg" xmlns:xlink="http://www.w3.org/1999/xlink" contentStyleType="text/css" height="262px" preserveAspectRatio="none" style="width:460px;height:262px;background:#FFFFFF;" version="1.1" viewBox="0 0 460 262" width="460px" zoomAndPan="magnify"><defs/><g><rect height="26.2969" id="_title" style="stroke:#00000000;stroke-width:1.0;fill:none;" width="254" x="103.75" y="10"/><text fill="#000000" font-family="sans-serif" font-size="14" font-weight="bold" lengthAdjust="spacing" textLength="244" x="108.75" y="27.9951">Messages - Sequence Diagram</text><line style="stroke:#181818;stroke-width:0.5;stroke-dasharray:5.0,5.0;" x1="23" x2="23" y1="118.5938" y2="255.125"/><line style="stroke:#181818;stroke-width:0.5;stroke-dasharray:5.0,5.0;" x1="128" x2="128" y1="118.5938" y2="255.125"/><line style="stroke:#181818;stroke-width:0.5;stroke-dasharray:5.0,5.0;" x1="227" x2="227" y1="118.5938" y2="255.125"/><line style="stroke:#181818;stroke-width:0.5;stroke-dasharray:5.0,5.0;" x1="321" x2="321" y1="118.5938" y2="255.125"/><line style="stroke:#181818;stroke-width:0.5;stroke-dasharray:5.0,5.0;" x1="424.5" x2="424.5" y1="118.5938" y2="255.125"/><text fill="#000000" font-family="sans-serif" font-size="14" lengthAdjust="spacing" textLength="31" x="5" y="115.292">User</text><ellipse cx="23.5" cy="50.7969" fill="#E2E2F0" rx="8" ry="8" style="stroke:#181818;stroke-width:0.5;"/><path d="M23.5,58.7969 L23.5,85.7969 M10.5,66.7969 L36.5,66.7969 M23.5,85.7969 L10.5,100.7969 M23.5,85.7969 L36.5,100.7969 " fill="none" style="stroke:#181818;stroke-width:0.5;"/><text fill="#000000" font-family="sans-serif" font-size="14" lengthAdjust="spacing" textLength="61" x="95" y="115.292">Web GUI</text><path d="M108,74.2969 L108,98.2969 M108,86.2969 L125,86.2969 " fill="none" style="stroke:#181818;stroke-width:0.5;"/><ellipse cx="137" cy="86.2969" fill="#E2E2F0" rx="12" ry="12" style="stroke:#181818;stroke-width:0.5;"/><text fill="#000000" font-family="sans-serif" font-size="14" lengthAdjust="spacing" textLength="104" x="172" y="115.292">Shopping Cart</text><ellipse cx="227" cy="86.2969" fill="#E2E2F0" rx="12" ry="12" style="stroke:#181818;stroke-width:0.5;"/><polygon fill="#181818" points="223,74.2969,229,69.2969,227,74.2969,229,79.2969,223,74.2969" style="stroke:#181818;stroke-width:1.0;"/><text fill="#000000" font-family="sans-serif" font-size="14" lengthAdjust="spacing" textLength="52" x="292" y="115.292">Widget</text><ellipse cx="321" cy="86.2969" fill="#E2E2F0" rx="12" ry="12" style="stroke:#181818;stroke-width:0.5;"/><line style="stroke:#181818;stroke-width:0.5;" x1="309" x2="333" y1="100.2969" y2="100.2969"/><text fill="#000000" font-family="sans-serif" font-size="14" lengthAdjust="spacing" textLength="59" x="392.5" y="115.292">Widgets</text><path d="M407,66.2969 C407,56.2969 425,56.2969 425,56.2969 C425,56.2969 443,56.2969 443,66.2969 L443,92.2969 C443,102.2969 425,102.2969 425,102.2969 C425,102.2969 407,102.2969 407,92.2969 L407,66.2969 " fill="#E2E2F0" style="stroke:#181818;stroke-width:1.5;"/><path d="M407,66.2969 C407,76.2969 425,76.2969 425,76.2969 C425,76.2969 443,76.2969 443,66.2969 " fill="none" style="stroke:#181818;stroke-width:1.5;"/><polygon fill="#181818" points="116.5,145.7266,126.5,149.7266,116.5,153.7266,120.5,149.7266" style="stroke:#181818;stroke-width:1.0;"/><line style="stroke:#181818;stroke-width:1.0;" x1="23.5" x2="122.5" y1="149.7266" y2="149.7266"/><text fill="#000000" font-family="sans-serif" font-size="13" lengthAdjust="spacing" textLength="81" x="30.5" y="144.6606">To boundary</text><polygon fill="#181818" points="215,174.8594,225,178.8594,215,182.8594,219,178.8594" style="stroke:#181818;stroke-width:1.0;"/><line style="stroke:#181818;stroke-width:1.0;" x1="128.5" x2="221" y1="178.8594" y2="178.8594"/><text fill="#000000" font-family="sans-serif" font-size="13" lengthAdjust="spacing" textLength="64" x="135.5" y="173.7935">To control</text><polygon fill="#181818" points="309,203.9922,319,207.9922,309,211.9922,313,207.9922" style="stroke:#181818;stroke-width:1.0;"/><line style="stroke:#181818;stroke-width:1.0;" x1="227" x2="315" y1="207.9922" y2="207.9922"/><text fill="#000000" font-family="sans-serif" font-size="13" lengthAdjust="spacing" textLength="57" x="234" y="202.9263">To entity</text><polygon fill="#181818" points="413,233.125,423,237.125,413,241.125,417,237.125" style="stroke:#181818;stroke-width:1.0;"/><line style="stroke:#181818;stroke-width:1.0;" x1="321" x2="419" y1="237.125" y2="237.125"/><text fill="#000000" font-family="sans-serif" font-size="13" lengthAdjust="spacing" textLength="80" x="328" y="232.0591">To database</text><!--MD5=[fc90c4064c4456396c34af05c61352d0]
@startuml
hide footbox

title "Messages - Sequence Diagram"

actor User
boundary "Web GUI" as GUI
control "Shopping Cart" as SC
entity Widget
database Widgets

User -> GUI : To boundary
GUI -> SC : To control
SC -> Widget : To entity
Widget -> Widgets : To database
@enduml

PlantUML version 1.2022.7beta2(Unknown compile time)
(GPL source distribution)
Java Runtime: Java(TM) SE Runtime Environment
JVM: Java HotSpot(TM) 64-Bit Server VM
Default Encoding: UTF-8
Language: en
Country: US
--></g></svg>